<?xml version="1.0" standalone="no"?>
<!DOCTYPE svg PUBLIC "-//W3C//DTD SVG 20010904//EN"
 "http://www.w3.org/TR/2001/REC-SVG-20010904/DTD/svg10.dtd">
<svg version="1.0" xmlns="http://www.w3.org/2000/svg"
 width="638.000000pt" height="638.000000pt" viewBox="0 0 638.000000 638.000000"
 preserveAspectRatio="xMidYMid meet">
<metadata>
Created by potrace 1.11, written by Peter Selinger 2001-2013
</metadata>
<g transform="translate(0.000000,638.000000) scale(0.100000,-0.100000)"
fill="#000000" stroke="none">
<path d="M1609 5942 c-17 -3 -8 12 -151 -237 -64 -110 -191 -330 -283 -490
-92 -159 -177 -306 -188 -325 -33 -58 -276 -480 -317 -550 -21 -36 -79 -137
-130 -225 -136 -237 -200 -347 -274 -473 -36 -63 -66 -115 -66 -118 0 -2 -16
-28 -35 -58 -19 -30 -35 -57 -35 -60 0 -3 -16 -30 -35 -60 -19 -30 -35 -57
-35 -60 0 -3 -13 -27 -29 -54 l-28 -48 63 -108 c35 -59 64 -109 64 -112 0 -3
69 -121 90 -154 6 -8 13 -21 17 -29 3 -8 35 -64 71 -125 36 -61 74 -127 85
-146 11 -19 86 -150 167 -290 81 -140 157 -272 169 -293 43 -76 59 -104 103
-177 24 -41 47 -82 51 -90 4 -8 15 -28 26 -45 10 -16 27 -46 38 -65 11 -20
138 -240 283 -490 283 -491 281 -487 329 -572 18 -32 36 -58 39 -59 10 0 3077
-1 3137 0 l50 1 53 93 c29 50 57 99 62 107 9 15 103 178 138 240 23 40 149
259 332 575 70 121 171 297 225 390 54 94 106 184 115 200 10 17 42 73 72 125
46 80 223 386 483 835 117 202 109 184 91 219 -9 17 -24 45 -34 61 -14 25
-302 523 -332 575 -5 8 -31 53 -58 100 -52 89 -227 394 -269 469 -14 24 -61
104 -104 178 -43 75 -79 137 -79 139 0 2 -17 32 -38 66 -21 35 -50 83 -64 108
-14 25 -134 234 -268 465 -133 231 -261 452 -283 492 -34 58 -47 73 -67 73
-56 3 -3138 5 -3151 2z"/>
</g>
</svg>
